<?xml version="1.0" encoding="UTF-8"?>
<!DOCTYPE svg PUBLIC "-//W3C//DTD SVG 1.1//EN" "http://www.w3.org/Graphics/SVG/1.1/DTD/svg11.dtd">
<!-- Creator: CorelDRAW -->
<svg xmlns="http://www.w3.org/2000/svg" xml:space="preserve" width="512px" height="512px" version="1.1" style="shape-rendering:geometricPrecision; text-rendering:geometricPrecision; image-rendering:optimizeQuality; fill-rule:evenodd; clip-rule:evenodd"
viewBox="0 0 512 512"
 xmlns:xlink="http://www.w3.org/1999/xlink">
 <defs>
  <style type="text/css">
   <![CDATA[
    .fil0 {fill:black}
    .fil5 {fill:#1886A0}
    .fil4 {fill:#1B95B2}
    .fil6 {fill:#1EA6C6}
    .fil1 {fill:#81D8DF}
    .fil3 {fill:#DA9E15}
    .fil2 {fill:#F2B017}
   ]]>
  </style>
 </defs>
 <g id="Layer_x0020_1">
  <metadata id="CorelCorpID_0Corel-Layer"/>
  <g id="_394268576">
   <path class="fil0" d="M151 62c-2,0 -5,-2 -5,-5l0 -35c0,-3 3,-5 5,-5 3,0 5,2 5,5l0 35c0,3 -2,5 -5,5z"/>
   <path class="fil1" d="M328 495c-17,0 -31,-13 -31,-29 0,-7 9,-24 23,-51 2,-4 3,-7 4,-9 1,-1 3,-2 5,-2 2,0 4,1 4,3 1,2 3,5 5,9 14,27 21,44 21,50 0,16 -14,29 -31,29z"/>
   <path class="fil1" d="M184 495c-17,0 -31,-13 -31,-29 0,-7 8,-24 22,-51 2,-4 4,-7 5,-9 1,-1 2,-2 4,-2 2,0 4,1 5,3 1,2 2,5 4,9 14,27 22,44 22,50 0,16 -14,29 -31,29z"/>
   <g>
    <path class="fil2" d="M116 212c-1,0 -2,0 -3,-1 -22,-13 -36,-37 -36,-63 0,-41 34,-74 74,-74 41,0 74,33 74,74 0,6 -1,13 -2,19 -1,3 -4,4 -6,4 -3,-1 -5,-4 -4,-7l-95 39c3,1 4,4 2,7 -1,1 -2,2 -4,2z"/>
    <path class="fil3" d="M151 62c-3,0 -5,-3 -5,-5l0 -35c0,-3 2,-5 5,-5 3,0 5,2 5,5l0 35c0,2 -2,5 -5,5z"/>
    <path class="fil3" d="M277 153l-34 0c-3,0 -5,-2 -5,-5 0,-3 2,-5 5,-5l34 0c3,0 5,2 5,5 0,3 -2,5 -5,5z"/>
    <path class="fil3" d="M60 153l-35 0c-3,0 -5,-2 -5,-5 0,-3 2,-5 5,-5l35 0c3,0 5,2 5,5 0,3 -2,5 -5,5z"/>
    <path class="fil3" d="M223 82c-2,0 -3,-1 -4,-2 -2,-2 -2,-5 0,-7l27 -27c2,-2 5,-2 7,0 2,2 2,5 0,7l-27 27c-1,1 -2,2 -3,2z"/>
    <path class="fil3" d="M80 82c-1,0 -3,-1 -4,-2l-27 -27c-2,-2 -2,-5 0,-7 2,-2 6,-2 8,0l27 27c2,2 2,5 0,7 -1,1 -3,2 -4,2z"/>
    <g>
     <path class="fil4" d="M458 389l-124 0c-3,0 -5,-3 -5,-5 0,-3 1,-5 4,-5l-78 -187c-1,0 -2,-1 -3,-2 -2,-2 -2,-5 0,-7 23,-22 57,-31 89,-23 30,8 53,28 64,56 15,-2 29,1 40,9 18,13 24,34 26,42 32,13 45,48 40,76 -4,22 -20,46 -53,46z"/>
     <path class="fil5" d="M359 389l-25 0c-3,0 -5,-3 -5,-5 0,-3 1,-5 4,-5l-78 -187c-1,0 -2,-1 -3,-2 -2,-2 -2,-5 0,-7 4,-4 8,-7 12,-9 9,8 17,19 23,31 1,0 2,0 2,0 25,0 45,12 57,33 4,7 8,14 10,22 26,12 42,36 41,66 -1,27 -15,49 -38,63z"/>
     <path class="fil6" d="M334 389l-280 0c-1,0 -1,0 -2,0 -31,-9 -51,-34 -52,-64 -1,-26 15,-48 40,-58 1,-4 4,-14 10,-24 11,-18 27,-28 48,-28 3,0 5,0 8,1 14,-36 48,-59 88,-59 39,0 73,23 87,59 3,-1 6,-1 8,-1 21,0 38,10 49,28 5,10 8,20 9,24 26,10 41,32 40,58 -1,30 -21,55 -52,64 0,0 -1,0 -1,0z"/>
     <path class="fil4" d="M124 228c14,-35 48,-58 88,-58 15,0 30,3 43,10 1,0 1,1 2,1 -1,-1 -1,-1 -1,-1 -17,-14 -39,-23 -62,-23 -40,0 -74,23 -88,59 -3,-1 -5,-1 -8,-1 -21,0 -37,10 -48,28 -6,10 -9,20 -10,24 -25,10 -41,32 -40,58 1,25 15,47 38,58 -12,-12 -20,-27 -20,-45 -1,-26 15,-48 40,-58 1,-5 4,-15 10,-24 11,-19 27,-28 48,-28 3,0 5,0 8,0z"/>
    </g>
   </g>
   <path class="fil1" d="M256 426c-17,0 -31,-13 -31,-29 0,-7 8,-24 23,-51 1,-4 3,-7 4,-9 1,-1 3,-2 5,-2 2,0 3,1 4,2 1,2 3,6 5,10 14,27 21,44 21,50 0,16 -14,29 -31,29z"/>
  </g>
 </g>
</svg>
